<svg width="28" height="24" viewBox="0 0 28 24" fill="none" xmlns="http://www.w3.org/2000/svg">
<path d="M25.6875 0.3125H2.3125C1.74891 0.3125 1.20841 0.536383 0.809898 0.934898C0.411383 1.33341 0.1875 1.87391 0.1875 2.4375V21.5625C0.1875 22.1261 0.411383 22.6666 0.809898 23.0651C1.20841 23.4636 1.74891 23.6875 2.3125 23.6875H25.6875C26.2511 23.6875 26.7916 23.4636 27.1901 23.0651C27.5886 22.6666 27.8125 22.1261 27.8125 21.5625V2.4375C27.8125 1.87391 27.5886 1.33341 27.1901 0.934898C26.7916 0.536383 26.2511 0.3125 25.6875 0.3125ZM25.6875 21.5625H2.3125V2.4375H25.6875V21.5625ZM21.4375 7.75C21.4375 8.03179 21.3256 8.30204 21.1263 8.5013C20.927 8.70056 20.6568 8.8125 20.375 8.8125H7.625C7.34321 8.8125 7.07296 8.70056 6.8737 8.5013C6.67444 8.30204 6.5625 8.03179 6.5625 7.75C6.5625 7.46821 6.67444 7.19796 6.8737 6.9987C7.07296 6.79944 7.34321 6.6875 7.625 6.6875H20.375C20.6568 6.6875 20.927 6.79944 21.1263 6.9987C21.3256 7.19796 21.4375 7.46821 21.4375 7.75ZM21.4375 12C21.4375 12.2818 21.3256 12.552 21.1263 12.7513C20.927 12.9506 20.6568 13.0625 20.375 13.0625H7.625C7.34321 13.0625 7.07296 12.9506 6.8737 12.7513C6.67444 12.552 6.5625 12.2818 6.5625 12C6.5625 11.7182 6.67444 11.448 6.8737 11.2487C7.07296 11.0494 7.34321 10.9375 7.625 10.9375H20.375C20.6568 10.9375 20.927 11.0494 21.1263 11.2487C21.3256 11.448 21.4375 11.7182 21.4375 12ZM21.4375 16.25C21.4375 16.5318 21.3256 16.802 21.1263 17.0013C20.927 17.2006 20.6568 17.3125 20.375 17.3125H7.625C7.34321 17.3125 7.07296 17.2006 6.8737 17.0013C6.67444 16.802 6.5625 16.5318 6.5625 16.25C6.5625 15.9682 6.67444 15.698 6.8737 15.4987C7.07296 15.2994 7.34321 15.1875 7.625 15.1875H20.375C20.6568 15.1875 20.927 15.2994 21.1263 15.4987C21.3256 15.698 21.4375 15.9682 21.4375 16.25Z" fill="#C4DAD2"/>
</svg>
