<svg width="294" height="300" viewBox="0 0 294 300" fill="none" xmlns="http://www.w3.org/2000/svg">
<path d="M146.501 66.5C135.301 169.3 135.168 264.667 136.501 299.5C26.9015 197.1 97.5012 57.1667 146.501 0C262.102 139.2 201.667 257.667 157 299.5C161.4 259.1 151.834 127.333 146.501 66.5Z" fill="#004724"/>
<path d="M260 177.5L174 299.5C269.2 281.9 293.333 184.5 293.5 138C271.5 138 239 155.333 225.5 164C226.3 189.2 217.5 217.167 213 228L260 177.5Z" fill="#004724"/>
<path d="M28.5 177.5L119 299.5C25 284.3 0.833333 185.5 0.5 138C36.9 146 60.6667 158.667 68 164C68 198.8 78.6667 226.167 84 235.5L28.5 177.5Z" fill="#004724"/>
</svg>
