<svg width="29" height="25" viewBox="0 0 29 25" fill="none" xmlns="http://www.w3.org/2000/svg">
<path d="M27.9062 0.1875H18.625C17.8245 0.1875 17.035 0.373873 16.3191 0.73186C15.6031 1.08985 14.9803 1.60961 14.5 2.25C14.0197 1.60961 13.3969 1.08985 12.6809 0.73186C11.965 0.373873 11.1755 0.1875 10.375 0.1875H1.09375C0.820246 0.1875 0.557943 0.296149 0.364546 0.489546C0.171149 0.682943 0.0625 0.945246 0.0625 1.21875V19.7812C0.0625 20.0548 0.171149 20.3171 0.364546 20.5105C0.557943 20.7039 0.820246 20.8125 1.09375 20.8125H10.375C11.1955 20.8125 11.9824 21.1384 12.5626 21.7186C13.1428 22.2988 13.4688 23.0857 13.4688 23.9062C13.4688 24.1798 13.5774 24.4421 13.7708 24.6355C13.9642 24.8289 14.2265 24.9375 14.5 24.9375C14.7735 24.9375 15.0358 24.8289 15.2292 24.6355C15.4226 24.4421 15.5312 24.1798 15.5312 23.9062C15.5312 23.0857 15.8572 22.2988 16.4374 21.7186C17.0176 21.1384 17.8045 20.8125 18.625 20.8125H27.9062C28.1798 20.8125 28.4421 20.7039 28.6355 20.5105C28.8289 20.3171 28.9375 20.0548 28.9375 19.7812V1.21875C28.9375 0.945246 28.8289 0.682943 28.6355 0.489546C28.4421 0.296149 28.1798 0.1875 27.9062 0.1875ZM10.375 18.75H2.125V2.25H10.375C11.1955 2.25 11.9824 2.57595 12.5626 3.15614C13.1428 3.73633 13.4688 4.52324 13.4688 5.34375V19.7812C12.5771 19.1103 11.4909 18.7482 10.375 18.75ZM26.875 18.75H18.625C17.5091 18.7482 16.4229 19.1103 15.5312 19.7812V5.34375C15.5312 4.52324 15.8572 3.73633 16.4374 3.15614C17.0176 2.57595 17.8045 2.25 18.625 2.25H26.875V18.75Z" fill="#C4DAD2"/>
</svg>
