<svg width="25" height="25" viewBox="0 0 25 25" fill="none" xmlns="http://www.w3.org/2000/svg">
<g clip-path="url(#clip0_2270_165)">
<path d="M24.2546 8.55553L13.0046 2.55553C12.8961 2.49775 12.775 2.46753 12.6521 2.46753C12.5292 2.46753 12.4081 2.49775 12.2996 2.55553L1.04961 8.55553C0.929613 8.61948 0.82926 8.71485 0.759284 8.83143C0.689309 8.94802 0.652344 9.08143 0.652344 9.2174C0.652344 9.35338 0.689309 9.48679 0.759284 9.60338C0.82926 9.71996 0.929613 9.81533 1.04961 9.87928L3.65211 11.2677V15.8071C3.65133 16.1755 3.78691 16.5311 4.03273 16.8055C5.26086 18.1733 8.01242 20.4674 12.6521 20.4674C14.1905 20.4801 15.7174 20.2015 17.1521 19.6462V22.7174C17.1521 22.9163 17.2311 23.1071 17.3718 23.2477C17.5124 23.3884 17.7032 23.4674 17.9021 23.4674C18.101 23.4674 18.2918 23.3884 18.4324 23.2477C18.5731 23.1071 18.6521 22.9163 18.6521 22.7174V18.9215C19.6301 18.3569 20.5139 17.643 21.2715 16.8055C21.5173 16.5311 21.6529 16.1755 21.6521 15.8071V11.2677L24.2546 9.87928C24.3746 9.81533 24.475 9.71996 24.5449 9.60338C24.6149 9.48679 24.6519 9.35338 24.6519 9.2174C24.6519 9.08143 24.6149 8.94802 24.5449 8.83143C24.475 8.71485 24.3746 8.61948 24.2546 8.55553ZM12.6521 18.9674C8.59555 18.9674 6.20961 16.9855 5.15211 15.8071V12.0674L12.2996 15.8793C12.4081 15.9371 12.5292 15.9673 12.6521 15.9673C12.775 15.9673 12.8961 15.9371 13.0046 15.8793L17.1521 13.6677V18.0121C15.9709 18.5633 14.4821 18.9674 12.6521 18.9674ZM20.1521 15.8033C19.7025 16.3022 19.1995 16.7502 18.6521 17.1393V12.8671L20.1521 12.0674V15.8033ZM18.2771 11.368L18.2565 11.3558L13.0065 8.55553C12.8313 8.46606 12.628 8.44898 12.4404 8.50797C12.2528 8.56696 12.0958 8.69729 12.0034 8.87089C11.9109 9.0445 11.8903 9.24747 11.9461 9.43608C12.0019 9.6247 12.1295 9.78386 12.3015 9.87928L16.6834 12.2174L12.6521 14.3671L2.99586 9.2174L12.6521 4.06772L22.3084 9.2174L18.2771 11.368Z" fill="#004724"/>
</g>
<defs>
<clipPath id="clip0_2270_165">
<rect width="24" height="24" fill="white" transform="translate(0.652344 0.217407)"/>
</clipPath>
</defs>
</svg>
