<svg width="30" height="24" viewBox="0 0 30 24" fill="none" xmlns="http://www.w3.org/2000/svg">
<path d="M19.8397 11.1155L13.4647 6.86547C13.3046 6.75869 13.1186 6.69737 12.9264 6.68806C12.7342 6.67875 12.5431 6.7218 12.3735 6.81261C12.2039 6.90342 12.0621 7.03859 11.9633 7.20368C11.8645 7.36878 11.8124 7.5576 11.8125 7.75001V16.25C11.8124 16.4424 11.8645 16.6312 11.9633 16.7963C12.0621 16.9614 12.2039 17.0966 12.3735 17.1874C12.5431 17.2782 12.7342 17.3213 12.9264 17.312C13.1186 17.3026 13.3046 17.2413 13.4647 17.1345L19.8397 12.8845C19.9854 12.7875 20.1049 12.6561 20.1876 12.5017C20.2703 12.3474 20.3135 12.1751 20.3135 12C20.3135 11.8249 20.2703 11.6526 20.1876 11.4983C20.1049 11.344 19.9854 11.2125 19.8397 11.1155ZM13.9375 14.2645V9.74219L17.3348 12L13.9375 14.2645ZM29.122 4.23313C28.9968 3.74351 28.757 3.29067 28.4224 2.91195C28.0878 2.53324 27.668 2.23951 27.1975 2.05501C22.6447 0.296567 15.3984 0.312505 15 0.312505C14.6016 0.312505 7.35531 0.296567 2.8025 2.05501C2.33203 2.23951 1.91217 2.53324 1.57756 2.91195C1.24296 3.29067 1.00319 3.74351 0.878047 4.23313C0.534063 5.5586 0.125 7.9811 0.125 12C0.125 16.0189 0.534063 18.4414 0.878047 19.7669C1.003 20.2567 1.24268 20.7099 1.5773 21.0888C1.91192 21.4678 2.33188 21.7617 2.8025 21.9463C7.16406 23.6291 13.9906 23.6875 14.9123 23.6875H15.0877C16.0094 23.6875 22.8399 23.6291 27.1975 21.9463C27.6681 21.7617 28.0881 21.4678 28.4227 21.0888C28.7573 20.7099 28.997 20.2567 29.122 19.7669C29.4659 18.4388 29.875 16.0189 29.875 12C29.875 7.9811 29.4659 5.5586 29.122 4.23313ZM27.0647 19.2409C27.0242 19.4039 26.9457 19.5549 26.8356 19.6817C26.7255 19.8084 26.5869 19.9072 26.4312 19.9701C22.2277 21.5931 15.0784 21.5638 15.0093 21.5638H15C14.9283 21.5638 7.7843 21.5904 3.57812 19.9701C3.42243 19.9072 3.28384 19.8084 3.17372 19.6817C3.0636 19.5549 2.98509 19.4039 2.94461 19.2409C2.62188 18.0284 2.25 15.7945 2.25 12C2.25 8.20555 2.62188 5.97165 2.93531 4.76571C2.97504 4.60179 3.05321 4.44969 3.16337 4.32197C3.27354 4.19426 3.41252 4.09461 3.56883 4.03126C7.62227 2.4654 14.4143 2.43751 14.9708 2.43751H15.0066C15.0784 2.43751 22.229 2.4136 26.4285 4.03126C26.5842 4.09409 26.7228 4.19293 26.8329 4.31967C26.943 4.44642 27.0216 4.59745 27.062 4.7604C27.3781 5.97165 27.75 8.20555 27.75 12C27.75 15.7945 27.3781 18.0284 27.0647 19.2343V19.2409Z" fill="#C4DAD2"/>
</svg>
